<svg xmlns="http://www.w3.org/2000/svg" width="40" height="30">
    <path fill="#C06D3A" fill-rule="evenodd" d="M38.247 9.237l-5.653 2.62v15.87c0 .79-.64 1.429-1.429 1.429h-1.268a1.428 1.428 0 0 1-1.428-1.429V13.769l-3.532 1.637v12.321c0 .79-.639 1.429-1.428 1.429H22.21a1.429 1.429 0 0 1-1.429-1.429V17.332l-2.468 1.144v9.251c0 .79-.64 1.429-1.429 1.429h-1.299a1.429 1.429 0 0 1-1.429-1.429v-7.324l-3.531 1.636v5.688c0 .79-.64 1.429-1.429 1.429H7.929A1.429 1.429 0 0 1 6.5 27.727v-3.776l-1.056.489c-1.509.699-3.44.284-4.311-.928C.261 22.3.778 20.75 2.288 20.051L6.5 18.099V1.585C6.5.796 7.14.156 7.929.156h1.267c.789 0 1.429.64 1.429 1.429v14.602l3.531-1.637V1.585c0-.789.64-1.429 1.429-1.429h1.299c.789 0 1.429.64 1.429 1.429v11.039l2.468-1.144V1.585c0-.789.64-1.429 1.429-1.429h1.299c.789 0 1.428.64 1.428 1.429v7.969l3.532-1.637V1.585c0-.789.639-1.429 1.428-1.429h1.268c.789 0 1.429.64 1.429 1.429v4.421l2.497-1.158c1.51-.699 3.44-.285 4.312.927.871 1.212.354 2.762-1.156 3.462z"/>
</svg>
