<svg xmlns="http://www.w3.org/2000/svg" width="49" height="45">
    <path fill="#C36E37" fill-rule="evenodd" d="M46.912 8.893l-1.502.755a8.36 8.36 0 0 1 .1 1.843l1.602.55c.712.245 1.087 1.033.837 1.762l-.604 1.758c-.168.49-.582.85-1.118.938a1.347 1.347 0 0 1-.656-.073L44 15.887a8.414 8.414 0 0 1-1.212 1.392l.735 1.547c.327.688.04 1.523-.64 1.865l-1.644.826a1.348 1.348 0 0 1-1.825-.627l-.734-1.547c-.6.111-1.208.153-1.813.127l-.562 1.636c-.251.729-1.031 1.121-1.744.876l-1.721-.591c-.712-.244-1.087-1.033-.837-1.761l.562-1.637a8.043 8.043 0 0 1-1.353-1.216l-1.53.769a1.347 1.347 0 0 1-1.825-.626l-.79-1.661a1.426 1.426 0 0 1 .148-1.459c.133-.183.32-.319.52-.42l1.504-.755a8.294 8.294 0 0 1-.101-1.843l-1.601-.55c-.713-.245-1.088-1.033-.838-1.762l.604-1.758a1.41 1.41 0 0 1 1.118-.939c.22-.036.446.001.656.074l1.571.539a8.407 8.407 0 0 1 1.212-1.391l-.735-1.548a1.416 1.416 0 0 1 .641-1.865l1.643-.825a1.347 1.347 0 0 1 1.825.626l.736 1.548a7.987 7.987 0 0 1 1.812-.127l.562-1.637c.25-.728 1.031-1.12 1.743-.876l1.721.591c.712.245 1.087 1.034.837 1.762l-.562 1.637c.495.352.947.759 1.352 1.214l1.531-.769a1.347 1.347 0 0 1 1.825.627l.79 1.661c.22.462.173 1.012-.149 1.459a1.41 1.41 0 0 1-.52.42zm-8.829-2.341c-1.884-.31-3.824.664-4.744 2.383-1.517 2.837.116 6.274 3.226 6.787 1.884.31 3.824-.664 4.744-2.383 1.517-2.837-.116-6.274-3.226-6.787zm-7.738 13.704l1.161 2.441c.324.679.255 1.487-.218 2.143-.195.27-.47.47-.764.617l-2.208 1.11c.149.895.199 1.801.148 2.708l2.353.808c1.047.36 1.598 1.519 1.23 2.589l-.887 2.584a2.069 2.069 0 0 1-1.643 1.379c-.323.053-.655-.002-.963-.108l-2.309-.793a12.365 12.365 0 0 1-1.781 2.046l1.08 2.274a2.081 2.081 0 0 1-.941 2.74l-2.415 1.213a1.98 1.98 0 0 1-2.682-.921l-1.079-2.274c-.882.164-1.774.226-2.664.188l-.826 2.404c-.367 1.071-1.515 1.647-2.562 1.287l-2.528-.868c-1.047-.36-1.598-1.519-1.231-2.589l.826-2.405a11.81 11.81 0 0 1-1.987-1.786l-2.249 1.13a1.98 1.98 0 0 1-2.682-.92l-1.161-2.441c-.323-.68-.255-1.487.219-2.144.194-.269.469-.469.763-.617l2.209-1.11c-.149-.893-.198-1.8-.147-2.707l-2.353-.808c-1.047-.36-1.598-1.519-1.231-2.589l.888-2.584a2.068 2.068 0 0 1 1.642-1.379c.323-.053.655.002.963.108l2.31.793a12.3 12.3 0 0 1 1.781-2.045l-1.081-2.274a2.081 2.081 0 0 1 .941-2.74l2.415-1.213a1.98 1.98 0 0 1 2.682.92l1.081 2.274a11.79 11.79 0 0 1 2.663-.186l.826-2.406c.367-1.07 1.514-1.646 2.561-1.286l2.528.868c1.048.36 1.598 1.519 1.231 2.589l-.826 2.405a11.8 11.8 0 0 1 1.986 1.784l2.25-1.13a1.98 1.98 0 0 1 2.681.921zM17.55 22.018c-2.768-.456-5.619.976-6.97 3.501-2.23 4.169.171 9.219 4.74 9.973 2.768.456 5.619-.976 6.97-3.501 2.23-4.169-.17-9.219-4.74-9.973z"/>
</svg>
